<svg id="Layer_1" data-name="Layer 1" xmlns="http://www.w3.org/2000/svg" viewBox="0 0 693 397.59">
  <defs>
    <style>
      .cls-1 {
        fill: #fff;
      }
    </style>
  </defs>
  <g>
    <path d="M84.74,287.05c1,.08,2,.23,3,.23H260.65V262.42h49.81V287h32.76V220.5H395V287h31.06V177.46H479.5V286.92h19V234.39h55.13v52.48h45.28V246.39h50.81v40.79h98.56v10.87h29.46v161c-10-.08-20-.22-30-.23-30.83,0-61.67-.11-92.5,0-14.11.07-28.23.88-42.35.87-15.45,0-30.9-.83-46.35-.84-14.78,0-29.55.83-44.33.84-13.95,0-27.9-.84-41.85-.84-13.61,0-27.22.82-40.84.84-11.78,0-23.56-.87-35.35-.84-15.45,0-30.89.83-46.34.84-13.78,0-27.56-.85-41.33-.84-15.29,0-30.57.91-45.85.85-42.94-.15-85.88-.59-128.82-.93-1,0-2-.11-3.66-.21V448.05H84.74Zm8,152.94H740.57V295.11H92.76Z" transform="translate(-84.74 -177.46)"/>
    <path d="M429.74,575.05c1.14-1,2.26-2.78,3.41-2.8q18.59-.3,37.18,0c1.15,0,2.28,1.83,3.41,2.8Z" transform="translate(-84.74 -177.46)"/>
    <path d="M428.88,540.05H474C470.91,543.53,433.48,543.78,428.88,540.05Z" transform="translate(-84.74 -177.46)"/>
    <path d="M473.29,534.09H428.83c1.74-1.59,2.29-2.53,3-2.66C438.77,530.13,471.14,531.32,473.29,534.09Z" transform="translate(-84.74 -177.46)"/>
    <path d="M429,507.07h45C470.82,510.56,433.38,510.76,429,507.07Z" transform="translate(-84.74 -177.46)"/>
    <path d="M430.27,549.89c3.32-3.36,40.06-3.26,44.27,0Z" transform="translate(-84.74 -177.46)"/>
    <path d="M473.29,556.18c-3.73,3.47-40.38,3.22-44.12,0Z" transform="translate(-84.74 -177.46)"/>
    <path d="M473.29,501.1H429.72C432.35,497.66,469.61,497.22,473.29,501.1Z" transform="translate(-84.74 -177.46)"/>
    <path d="M473.32,491.5c-4.35,2.28-40.73,1.8-43.88-1.34h43.87Z" transform="translate(-84.74 -177.46)"/>
    <path d="M430.27,483.89c3.32-3.36,40.06-3.26,44.27,0Z" transform="translate(-84.74 -177.46)"/>
    <path d="M473.16,467.6H430.24l-.41-1.18c.89-.48,1.78-1.35,2.67-1.36q19.14-.13,38.27,0c1,0,1.91.74,2.87,1.14Z" transform="translate(-84.74 -177.46)"/>
    <path d="M429.06,566.34c4.32-3.19,41.55-3.07,45,0Z" transform="translate(-84.74 -177.46)"/>
    <path d="M474.09,473.82c-3.57,3-40.81,3.11-44.87,0Z" transform="translate(-84.74 -177.46)"/>
    <path d="M473.9,523.66c-3.21,3.39-41.29,3.34-44.18,0Z" transform="translate(-84.74 -177.46)"/>
    <path d="M429.82,515.76c9.33-2.12,41.88-1,43.45,1.34C466.84,519.07,432.17,518.3,429.82,515.76Z" transform="translate(-84.74 -177.46)"/>
    <path d="M390.28,473.62c-1.93,2.36-37.42,3.62-42,2.35-.65-.18-1.07-1.19-2.05-2.35Z" transform="translate(-84.74 -177.46)"/>
    <path d="M346.61,525.5c2.53-3.19,40.94-3.34,44.33,0Z" transform="translate(-84.74 -177.46)"/>
    <path d="M346.12,483.69c3.71-3.16,41.11-3.17,45.07,0Z" transform="translate(-84.74 -177.46)"/>
    <path d="M346.32,467.26c.87-1,1.32-2,2-2.13,5-1.31,40.07,0,43.08,2.13Z" transform="translate(-84.74 -177.46)"/>
    <path d="M390.93,515.53c-3.26,3.38-41.69,3.3-44.43,0Z" transform="translate(-84.74 -177.46)"/>
    <path d="M514,465.66a21.09,21.09,0,0,1,3.81-.65q19.69.15,39.39.49c.19,0,.35,1.11.61,2H514.2C514.12,466.88,514,466.27,514,465.66Z" transform="translate(-84.74 -177.46)"/>
    <path d="M346.9,489.84c14.41-.29,28.84-.11,43.26-.11l.45,1.53c-.9.51-1.8,1.44-2.7,1.45q-19.43.14-38.86,0c-.77,0-1.54-.69-2.31-1.06C346.8,491.05,346.85,490.45,346.9,489.84Z" transform="translate(-84.74 -177.46)"/>
    <path d="M391.64,507.35c-4.86,3.34-42.18,3.11-45.33,0Z" transform="translate(-84.74 -177.46)"/>
    <path d="M346.93,499.86c3.37-2.44,40.69-2.23,43.34.24C386.22,502.15,350,502,346.93,499.86Z" transform="translate(-84.74 -177.46)"/>
    <path d="M263.6,483.53c2.83-2.93,39.52-3.19,43.2-.69C304,484.75,270.79,485.38,263.6,483.53Z" transform="translate(-84.74 -177.46)"/>
    <path d="M263.54,466.83c.68-.6,1.35-1.72,2-1.73,13.71-.1,27.41-.08,41.6,1.08-.67.59-1.34,1.68-2,1.68-13.71.1-27.43.08-41.14.08Z" transform="translate(-84.74 -177.46)"/>
    <path d="M307.92,473.2c-3.2,3.21-36.34,4.05-44.38,2.09.62-.8,1.12-2,1.62-2C279,473.18,292.86,473.2,307.92,473.2Z" transform="translate(-84.74 -177.46)"/>
    <path d="M644.56,500.9H600.44C602.89,497.55,640.47,497.24,644.56,500.9Z" transform="translate(-84.74 -177.46)"/>
    <path d="M600.77,490.27h42.7l.48.93c-.86.53-1.73,1.5-2.6,1.5q-19.2.15-38.4,0c-.81,0-1.62-.67-2.43-1C600.61,491.22,600.69,490.75,600.77,490.27Z" transform="translate(-84.74 -177.46)"/>
    <path d="M599.5,483.74c4.58-3.29,41.44-3.13,44.82,0Z" transform="translate(-84.74 -177.46)"/>
    <path d="M600.33,473.88c8.69-1.91,41.37-1,43.3,1.06C638.84,477.13,602.83,476.56,600.33,473.88Z" transform="translate(-84.74 -177.46)"/>
    <path d="M644.7,465.19c-3.12,3.07-36.69,3.86-44.25,2,.38-.7.71-1.89,1-1.89C615.52,465.18,629.54,465.19,644.7,465.19Z" transform="translate(-84.74 -177.46)"/>
    <ellipse cx="200.58" cy="313.34" rx="30.07" ry="0.94"/>
    <path d="M347.26,531.78h42.53v.83H347.22Z" transform="translate(-84.74 -177.46)"/>
    <path d="M602.57,507h39.32v.46H602.57Z" transform="translate(-84.74 -177.46)"/>
    <path d="M555.68,473.71H516.81v-.23h38.8Z" transform="translate(-84.74 -177.46)"/>
    <path class="cls-1" d="M92.76,440V295.11H740.57V440ZM352.82,380.4c6.86-.42,13.56-.2,20-1.39,7.7-1.43,12-7.69,12.12-15.61.12-8.19-4.14-14.77-11.93-16.25-6.56-1.24-13.4-1-20.17-1.43Zm133.74-34.27v33.58h6.35V370.2c3.07,0,5.69.11,8.31,0,7.94-.39,12.58-4.74,12.69-11.77s-4.36-11.69-12.26-12.22C496.88,345.86,492.07,346.13,486.56,346.13ZM173.19,371.81c-7.14,5.08-13.51,5.08-17.89.3a13.94,13.94,0,0,1-.48-17.5c4.26-5.28,10.55-5.51,18.46-.48l3.42-3.75c-8.1-7.18-19.77-6.93-26.39.25-6.34,6.88-6.06,18.93.59,25.44,6.9,6.76,18.61,6.6,25.74-.51Zm436.36-2.66c.09-8.58-3.32-13.4-9.93-14.81a13.35,13.35,0,0,0-15,7.29c-2.55,5.77-.74,13.18,4.07,16.7a14.89,14.89,0,0,0,18.92-1.51l-2.49-3.4c-8.53,4.35-12.91,3.19-15.26-4.27ZM462.6,379.3c0-5.22.28-10.86-.08-16.46-.31-4.64-3.2-7.62-7.85-8.45a17.49,17.49,0,0,0-14,2.93l2.17,3.71c9.45-3.45,13.09-2.36,13.33,4.07-2.49,0-5-.15-7.46,0-6.05.44-9.33,3.62-9,8.49.35,4.53,4.66,7.79,10.18,7.34C454.06,380.63,458.13,379.9,462.6,379.3Zm-49.86,0c0-3.81,0-7.78,0-11.76,0-11.36-6.13-15.88-17.2-12.61a43.62,43.62,0,0,0-5,2.23l2.24,3.75c9.87-3.2,12.79-2.35,13.69,4.18-2.52,0-5-.14-7.48,0-6.32.41-9.73,3.75-9.16,8.78.52,4.63,5.28,7.72,10.93,7C404.52,380.46,408.29,379.9,412.74,379.3Zm152-11.66c0-7.88-5.62-13.57-13.54-13.58a13.05,13.05,0,0,0-13.45,13.15c-.15,7.92,5.43,13.73,13.28,13.84A13.07,13.07,0,0,0,564.74,367.64Zm-357-.16c0-7.87-5.79-13.51-13.7-13.42a13,13,0,0,0-13.29,13.32c-.07,7.9,5.58,13.64,13.44,13.67A13.08,13.08,0,0,0,207.74,367.48Zm25-13.21c0,5,.18,9.77,0,14.55-.21,4.29-3.23,7.21-7,7-4.34-.29-6-3.09-5.94-7.13,0-4.78,0-9.55,0-14.64l-6,.28c0,5.79-.22,11.11.05,16.4.34,6.69,4.57,10.66,11,10.27,4.54-.28,9-1.17,13.58-1.8v-24.9Zm38.95,25.55c0-5.63.28-10.95-.07-16.23-.42-6.3-4.87-10-11.16-9.45-2.53.23-5,1.36-7.46,2.08l.32-1-6.22-1.41v26.08h5.72c0-4.8-.21-9.44.06-14,.25-4.29,3.35-6.9,7.31-6.52,4.13.4,5.6,3.09,5.59,6.92,0,4.46,0,8.93,0,13.61ZM303.75,361c-4.66-7-11.83-8.56-18.35-5.11-5.84,3.1-8.3,10.77-5.54,17.33a13.45,13.45,0,0,0,16.68,7.2c2.54-.88,4.67-2.91,7.64-4.84l-4.92-3.06c-.56.42-1,.7-1.36,1-4,3.05-7.8,3.14-10.75.26s-3.24-8.62-.49-11.92,6.33-3.32,10.72-1C298.83,361.63,301.06,361,303.75,361Zm335.48-1.13c-4.39-5.58-10.26-7.1-16.37-4.68-5.43,2.15-8.57,7.41-8.07,13.55a13,13,0,0,0,10.74,12.1c6,1.17,10.76-.91,13.41-6-1.19-.79-2.39-1.6-3.54-2.38-5.41,4.12-9.39,4.41-12.51,1a9.4,9.4,0,0,1-.32-11.55c3-3.76,6.88-3.66,12.92.48Zm-217.49.7c0,3.3-.06,7.11,0,10.93.18,8.53,6.08,11.87,15.42,7.17-2.17-1.17-3.54-2.51-4.93-2.54-2.94,0-4.43-1.16-4.47-4-.07-4.27,0-8.53,0-12.78l6.44-.52c1.64-6.44-3.73-3.7-6.21-5.07-.16-1.43-.34-3-.53-4.74H421.9c-.11,1.78-.19,3.23-.19,3.21-1.95,2.25-3.59,3.38-3.89,4.8C417.67,357.71,419.91,358.94,421.74,360.54Zm239.45,18.08c-2.15-1.15-3.54-2.49-5-2.51-2.94-.06-4.42-1.19-4.47-4.05-.06-4.26,0-8.53,0-12.76l6.44-.53c1.62-6.42-3.72-3.71-6.21-5-.16-1.47-.34-3.06-.52-4.76H645.9c-.11,1.78-.2,3.23-.23,3.8l-4.07,3.67,4.14,4.33c0,3.08-.07,6.89,0,10.71C646,380,651.88,383.35,661.19,378.62ZM563,386.2c7.92,4.39,14.09,2,14.47-4.56.52-9.08.13-18.21.13-27.62l-5.88.28c0,8.64,0,16.79,0,24.94,0,3.22-1,5-4.68,4.86C565.74,384.06,564.37,385.46,563,386.2Zm-233.61-6.36V344.26H324v35.58Zm205-26.37L526,356.15l.39-.78L520,353.61v26.17h5.22c2.61-7.46-4.67-18.83,9.21-20.83Zm-219.89,26.4V354.33h-5.46v25.54Zm266.13-33.11c-2.88-1.81-4.35-3.47-5.79-3.44-1.28,0-2.52,1.93-3.78,3,1.19,1.28,2.24,3.38,3.6,3.6S577.65,348.45,580.64,346.76Zm-263.77-.55c-2.45-1.43-4.1-3.16-5.25-2.88-1.48.36-2.55,2.35-3.8,3.63,1.44,1.06,2.83,2.83,4.34,2.94C313.35,350,314.68,348,316.87,346.21Z" transform="translate(-84.74 -177.46)"/>
    <path d="M352.82,380.4V345.72c6.77.42,13.61.19,20.17,1.43,7.79,1.48,12.05,8.06,11.93,16.25-.12,7.92-4.42,14.18-12.12,15.61C366.38,380.2,359.68,380,352.82,380.4Zm6.21-29v23.34c6.69,0,13.5,1.46,17.85-5.15a11.37,11.37,0,0,0,0-13.19C372.47,349.91,365.71,351.21,359,351.44Z" transform="translate(-84.74 -177.46)"/>
    <path d="M486.56,346.13c5.51,0,10.32-.27,15.09.06,7.9.53,12.36,5.17,12.26,12.22s-4.75,11.38-12.69,11.77c-2.62.13-5.24,0-8.31,0v9.51h-6.35V346.13ZM493,365.24c5.21-.85,11,1.82,13.88-4a7.91,7.91,0,0,0-.45-6.9c-3.37-4.53-8.51-3-13.43-2.87Z" transform="translate(-84.74 -177.46)"/>
    <path d="M173.19,371.81l3.45,3.75c-7.13,7.11-18.84,7.27-25.74.51-6.65-6.51-6.93-18.56-.59-25.44,6.62-7.18,18.29-7.43,26.39-.25l-3.42,3.75c-7.91-5-14.2-4.8-18.46.48a13.94,13.94,0,0,0,.48,17.5C159.68,376.89,166.05,376.89,173.19,371.81Z" transform="translate(-84.74 -177.46)"/>
    <path d="M609.55,369.15H589.91c2.35,7.46,6.73,8.62,15.26,4.27l2.49,3.4a14.89,14.89,0,0,1-18.92,1.51c-4.81-3.52-6.62-10.93-4.07-16.7a13.35,13.35,0,0,1,15-7.29C606.23,355.75,609.64,360.57,609.55,369.15Zm-5.5-4.25c-1.52-4.49-4.08-6.34-8-5.93-3.36.36-5.8,1.95-6.12,5.93Z" transform="translate(-84.74 -177.46)"/>
    <path d="M462.6,379.3c-4.47.6-8.54,1.33-12.64,1.66-5.52.45-9.83-2.81-10.18-7.34-.37-4.87,2.91-8.05,9-8.49,2.47-.18,5,0,7.46,0-.24-6.43-3.88-7.52-13.33-4.07l-2.17-3.71a17.49,17.49,0,0,1,14-2.93c4.65.83,7.54,3.81,7.85,8.45C462.88,368.44,462.6,374.08,462.6,379.3Zm-6.2-10.19c-2.27,0-4.7-.47-6.8.16-1.51.45-2.57,2.37-3.82,3.64,1.29,1.28,2.39,3.29,3.91,3.69C453.71,377.65,456.61,374.33,456.4,369.11Z" transform="translate(-84.74 -177.46)"/>
    <path d="M412.74,379.3c-4.45.6-8.22,1.16-12,1.62-5.65.69-10.41-2.4-10.93-7-.57-5,2.84-8.37,9.16-8.78,2.47-.16,5,0,7.48,0-.9-6.53-3.82-7.38-13.69-4.18l-2.24-3.75a43.62,43.62,0,0,1,5-2.23c11.07-3.27,17.19,1.25,17.2,12.61C412.75,371.52,412.74,375.49,412.74,379.3Zm-6.16-10.16c-2.66,0-5.07-.42-7.22.15-1.39.37-3.52,2.41-3.34,3.3a6.08,6.08,0,0,0,3.42,4C403.37,377.79,406.44,374.59,406.58,369.14Z" transform="translate(-84.74 -177.46)"/>
    <path d="M564.74,367.64A13.07,13.07,0,0,1,551,381.05c-7.85-.11-13.43-5.92-13.28-13.84a13.05,13.05,0,0,1,13.45-13.15C559.12,354.07,564.79,359.76,564.74,367.64Zm-6,.13c.12-4.78-2.87-8.44-7.08-8.68-4.47-.26-7.86,3.32-7.9,8.34,0,4.79,3,8.32,7.33,8.42S558.62,372.54,558.73,367.77Z" transform="translate(-84.74 -177.46)"/>
    <path d="M207.74,367.48a13.08,13.08,0,0,1-13.55,13.57c-7.86,0-13.51-5.77-13.44-13.67A13,13,0,0,1,194,354.06C202,354,207.7,359.61,207.74,367.48Zm-6,0c0-4.78-3.17-8.32-7.41-8.37-4.44-.05-7.69,3.68-7.57,8.69.12,4.77,3.35,8.19,7.65,8.09S201.78,372.22,201.73,367.44Z" transform="translate(-84.74 -177.46)"/>
    <path d="M232.7,354.27h5.71v24.9c-4.54.63-9,1.52-13.58,1.8-6.42.39-10.65-3.58-11-10.27-.27-5.29-.05-10.61-.05-16.4l6-.28c0,5.09,0,9.86,0,14.64,0,4,1.6,6.84,5.94,7.13,3.74.24,6.76-2.68,7-7C232.88,364,232.7,359.25,232.7,354.27Z" transform="translate(-84.74 -177.46)"/>
    <path d="M271.65,379.82h-5.91c0-4.68,0-9.15,0-13.61,0-3.83-1.46-6.52-5.59-6.92-4-.38-7.06,2.23-7.31,6.52-.27,4.6-.06,9.24-.06,14h-5.72V353.77l6.22,1.41-.32,1c2.48-.72,4.93-1.85,7.46-2.08,6.29-.56,10.74,3.15,11.16,9.45C271.93,368.87,271.65,374.19,271.65,379.82Z" transform="translate(-84.74 -177.46)"/>
    <path d="M303.75,361c-2.69,0-4.92.66-6.37-.12-4.39-2.34-8-2.26-10.72,1s-2.51,9,.49,11.92,6.79,2.79,10.75-.26c.39-.3.8-.58,1.36-1l4.92,3.06c-3,1.93-5.1,4-7.64,4.84a13.45,13.45,0,0,1-16.68-7.2c-2.76-6.56-.3-14.23,5.54-17.33C291.92,352.41,299.09,354,303.75,361Z" transform="translate(-84.74 -177.46)"/>
    <path d="M639.23,359.84l-3.74,2.57c-6-4.14-9.89-4.24-12.92-.48a9.4,9.4,0,0,0,.32,11.55c3.12,3.4,7.1,3.11,12.51-1,1.15.78,2.35,1.59,3.54,2.38-2.65,5-7.46,7.13-13.41,6a13,13,0,0,1-10.74-12.1c-.5-6.14,2.64-11.4,8.07-13.55C629,352.74,634.84,354.26,639.23,359.84Z" transform="translate(-84.74 -177.46)"/>
    <path d="M421.74,360.54c-1.83-1.6-4.07-2.83-3.92-3.56.3-1.42,1.94-2.55,3.89-4.8,0,0,.08-1.43.19-3.21h5.56c.19,1.72.37,3.31.53,4.74,2.48,1.37,7.85-1.37,6.21,5.07l-6.44.52c0,4.25-.05,8.51,0,12.78,0,2.86,1.53,4,4.47,4,1.39,0,2.76,1.37,4.93,2.54-9.34,4.7-15.24,1.36-15.42-7.17C421.68,367.65,421.74,363.84,421.74,360.54Z" transform="translate(-84.74 -177.46)"/>
    <path d="M661.19,378.62c-9.31,4.73-15.24,1.39-15.43-7.13-.09-3.82,0-7.63,0-10.71l-4.14-4.33,4.07-3.67c0-.57.12-2,.23-3.8h5.57c.18,1.7.36,3.29.52,4.76,2.49,1.32,7.83-1.39,6.21,5l-6.44.53c0,4.23,0,8.5,0,12.76.05,2.86,1.53,4,4.47,4.05C657.65,376.13,659,377.47,661.19,378.62Z" transform="translate(-84.74 -177.46)"/>
    <path d="M563,386.2c1.35-.74,2.72-2.14,4.05-2.1,3.64.1,4.7-1.64,4.68-4.86,0-8.15,0-16.3,0-24.94l5.88-.28c0,9.41.39,18.54-.13,27.62C577.11,388.17,570.94,390.59,563,386.2Z" transform="translate(-84.74 -177.46)"/>
    <path d="M329.41,379.84H324V344.26h5.41Z" transform="translate(-84.74 -177.46)"/>
    <path d="M534.4,353.47V359c-13.88,2-6.6,13.37-9.21,20.83H520V353.61l6.39,1.76-.39.78Z" transform="translate(-84.74 -177.46)"/>
    <path d="M314.51,379.87h-5.46V354.33h5.46Z" transform="translate(-84.74 -177.46)"/>
    <path d="M580.64,346.76c-3,1.69-4.63,3.38-6,3.16s-2.41-2.32-3.6-3.6c1.26-1.07,2.5-3,3.78-3C576.29,343.29,577.76,345,580.64,346.76Z" transform="translate(-84.74 -177.46)"/>
    <path d="M316.87,346.21c-2.19,1.82-3.52,3.78-4.71,3.69-1.51-.11-2.9-1.88-4.34-2.94,1.25-1.28,2.32-3.27,3.8-3.63C312.77,343.05,314.42,344.78,316.87,346.21Z" transform="translate(-84.74 -177.46)"/>
    <path class="cls-1" d="M359,351.44c6.68-.23,13.44-1.53,17.82,5a11.37,11.37,0,0,1,0,13.19c-4.35,6.61-11.16,5.13-17.85,5.15Z" transform="translate(-84.74 -177.46)"/>
    <path class="cls-1" d="M493,365.24V351.48c4.92-.12,10.06-1.66,13.43,2.87a7.91,7.91,0,0,1,.45,6.9C504,367.06,498.19,364.39,493,365.24Z" transform="translate(-84.74 -177.46)"/>
    <path class="cls-1" d="M604.05,364.9H589.92c.32-4,2.76-5.57,6.12-5.93C600,358.56,602.53,360.41,604.05,364.9Z" transform="translate(-84.74 -177.46)"/>
    <path class="cls-1" d="M456.4,369.11c.21,5.22-2.69,8.54-6.71,7.49-1.52-.4-2.62-2.41-3.91-3.69,1.25-1.27,2.31-3.19,3.82-3.64C451.7,368.64,454.13,369.11,456.4,369.11Z" transform="translate(-84.74 -177.46)"/>
    <path class="cls-1" d="M406.58,369.14c-.14,5.45-3.21,8.65-7.14,7.41a6.08,6.08,0,0,1-3.42-4c-.18-.89,2-2.93,3.34-3.3C401.51,368.72,403.92,369.14,406.58,369.14Z" transform="translate(-84.74 -177.46)"/>
    <path class="cls-1" d="M558.73,367.77c-.11,4.77-3.35,8.18-7.65,8.08s-7.37-3.63-7.33-8.42c0-5,3.43-8.6,7.9-8.34C555.86,359.33,558.85,363,558.73,367.77Z" transform="translate(-84.74 -177.46)"/>
    <path class="cls-1" d="M201.73,367.44c.05,4.78-3,8.31-7.33,8.41s-7.53-3.32-7.65-8.09c-.12-5,3.13-8.74,7.57-8.69C198.56,359.12,201.69,362.66,201.73,367.44Z" transform="translate(-84.74 -177.46)"/>
  </g>
</svg>
